<svg width="839" height="768" viewBox="0 0 839 768" fill="none" xmlns="http://www.w3.org/2000/svg">
<path fill-rule="evenodd" clip-rule="evenodd" d="M400.5 0.394063C388.806 1.18906 378.36 2.73106 373.601 4.36406C372.006 4.91006 369.445 5.35806 367.91 5.35806C366.374 5.35806 364.871 5.75706 364.57 6.24506C364.269 6.73206 362.387 7.43806 360.388 7.81306C358.389 8.18806 356.022 8.86806 355.127 9.32406C354.232 9.78006 351.475 10.9681 349 11.9631C341.258 15.0791 329.672 22.6451 325.608 27.2411C324.448 28.5521 323.025 30.1271 322.444 30.7411C321.174 32.0841 318.759 36.5271 316.59 41.5091C315.306 44.4581 314.998 49.1711 314.989 66.0091L314.977 86.8581L310.739 88.8431C308.407 89.9351 306.275 91.0601 306 91.3431C305.725 91.6261 301.45 93.8611 296.5 96.3101C291.55 98.7581 285.821 101.796 283.77 103.06C281.718 104.324 279.356 105.358 278.52 105.358C277.684 105.358 277 105.799 277 106.339C277 106.878 275.875 107.602 274.5 107.947C273.125 108.292 272 108.877 272 109.246C272 109.616 269.75 110.791 267 111.858C264.25 112.925 262 114.149 262 114.578C262 115.619 257.652 115.579 256.45 114.527C255.928 114.07 252.575 112.909 249 111.948C225.868 105.725 220.283 105.047 192.5 105.089C164.781 105.131 157.283 106.069 132.75 112.557C130.137 113.247 128 114.16 128 114.585C128 115.01 126.961 115.358 125.691 115.358C124.421 115.358 122.509 116.019 121.441 116.826C120.374 117.634 118.713 118.309 117.75 118.326C116.787 118.344 116 118.808 116 119.358C116 119.908 115.431 120.358 114.737 120.358C111.018 120.358 97.126 132.17 92.98 138.858C87.639 147.473 87.031 151.665 87.015 179.987L87 206.115L83.75 207.43C81.962 208.153 80.275 208.995 80 209.301C79.521 209.834 67.979 215.854 46.5 226.774C41 229.57 36.275 232.084 36 232.361C35.725 232.638 28.753 236.265 20.508 240.421C8.105 246.672 5.045 248.658 2.791 251.918L0.066 255.858L0 545.276L2.719 549.778C4.283 552.367 6.937 555.039 8.969 556.068C10.911 557.053 12.725 558.083 13.001 558.358C14.114 559.469 20.25 562.358 21.498 562.358C22.232 562.358 22.983 562.695 23.167 563.108C23.35 563.521 26.65 565.433 30.5 567.358C34.35 569.283 37.725 571.083 38 571.358C38.275 571.633 42.55 573.881 47.5 576.353C52.45 578.825 58.179 581.862 60.23 583.103C62.282 584.343 64.644 585.358 65.48 585.358C66.316 585.358 67 585.799 67 586.339C67 586.878 68.125 587.602 69.5 587.947C70.875 588.292 72 588.976 72 589.466C72 589.957 72.639 590.358 73.419 590.358C74.73 590.358 80.851 593.211 81.999 594.358C82.533 594.891 99.008 603.471 115.5 611.805C121 614.584 125.725 617.095 126 617.386C126.275 617.676 128.525 618.788 131 619.858C133.475 620.928 135.725 622.04 136 622.33C136.275 622.621 139.65 624.433 143.5 626.358C147.35 628.283 150.725 630.083 151 630.358C151.426 630.784 176.871 643.914 182.952 646.845C184.079 647.388 185 648.176 185 648.595C185 649.015 185.639 649.358 186.419 649.358C187.73 649.358 193.849 652.21 195 653.358C196.116 654.47 202.25 657.358 203.498 657.358C204.232 657.358 204.983 657.697 205.167 658.112C205.35 658.527 208.65 660.431 212.5 662.342C216.35 664.254 219.725 666.052 220 666.338C220.275 666.624 224.55 668.866 229.5 671.32C234.45 673.774 238.725 676.037 239 676.348C239.275 676.659 241.525 677.788 244 678.858C246.475 679.928 248.725 681.04 249 681.33C249.275 681.621 252.65 683.433 256.5 685.358C260.35 687.283 263.725 689.083 264 689.358C264.275 689.633 271.025 693.179 279 697.238C300.871 708.369 307.45 711.805 308 712.386C308.275 712.676 310.525 713.788 313 714.858C315.475 715.928 317.725 717.043 318 717.336C318.275 717.629 321.65 719.414 325.5 721.302C329.35 723.191 332.725 724.988 333 725.297C333.275 725.605 339.8 729.008 347.5 732.858C355.2 736.708 361.725 740.083 362 740.358C362.275 740.633 365.65 742.433 369.5 744.358C373.35 746.283 376.725 748.083 377 748.358C377.275 748.633 384.025 752.145 392 756.163C408.252 764.351 410.197 765.433 411.214 766.858C412.15 768.171 426.863 768.157 427.786 766.843C428.519 765.8 434.034 762.798 451.5 753.933C457 751.142 461.725 748.633 462.001 748.358C463.114 747.247 469.25 744.358 470.498 744.358C471.232 744.358 471.983 744.02 472.167 743.608C472.35 743.195 474.075 742.022 476 741C482.208 737.703 514.254 721.109 522.5 716.921C526.9 714.686 530.725 712.633 531.001 712.358C532.114 711.247 538.25 708.358 539.498 708.358C540.232 708.358 540.983 708.02 541.167 707.608C541.516 706.822 547.785 703.417 564.5 694.933C570 692.142 574.725 689.633 575.001 689.358C576.114 688.247 582.25 685.358 583.498 685.358C584.232 685.358 584.983 685.021 585.167 684.608C585.35 684.195 588.65 682.283 592.5 680.358C596.35 678.433 599.725 676.633 600 676.358C600.453 675.905 614.068 668.838 635.5 657.93C639.9 655.69 643.725 653.633 644.001 653.358C645.114 652.247 651.25 649.358 652.498 649.358C653.232 649.358 653.983 649.02 654.167 648.608C654.35 648.195 657.65 646.283 661.5 644.358C665.35 642.433 668.725 640.633 669 640.358C669.275 640.083 673.55 637.85 678.5 635.396C683.45 632.942 687.725 630.692 688.001 630.396C689.024 629.297 695.209 626.358 696.498 626.358C697.232 626.358 697.983 626.021 698.167 625.608C698.35 625.195 701.65 623.283 705.5 621.358C709.35 619.433 712.725 617.633 713 617.358C713.275 617.083 718 614.584 723.5 611.805C739.992 603.471 756.467 594.891 757.001 594.358C758.114 593.247 764.25 590.358 765.498 590.358C766.232 590.358 766.983 590.021 767.167 589.608C767.35 589.195 770.65 587.283 774.5 585.358C778.35 583.433 781.725 581.633 782 581.358C782.275 581.083 786.55 578.85 791.5 576.396C796.45 573.942 800.725 571.679 801 571.368C801.275 571.057 803.525 569.928 806 568.858C808.475 567.788 810.725 566.676 811 566.386C811.275 566.095 814.65 564.283 818.5 562.358C822.35 560.433 825.725 558.633 826.001 558.358C827.149 557.211 833.27 554.358 834.581 554.358C835.361 554.358 836 553.908 836 553.358C836 552.808 836.675 552.358 837.5 552.358C838.827 552.358 838.996 535.234 838.967 404.108L838.934 255.858L836.174 251.858C834.03 248.749 831.197 246.744 823.458 242.858C817.981 240.108 813.35 237.521 813.167 237.108C812.983 236.695 812.232 236.358 811.498 236.358C810.25 236.358 804.114 233.469 803.001 232.358C802.534 231.892 794.011 227.466 769.5 214.96C764 212.154 759.275 209.607 759 209.301C758.725 208.995 757.038 208.153 755.25 207.43L752 206.115L751.985 179.987C751.969 151.665 751.361 147.473 746.02 138.858C741.874 132.17 727.982 120.358 724.263 120.358C723.569 120.358 723 119.908 723 119.358C723 118.808 722.212 118.344 721.25 118.326C720.288 118.309 718.626 117.634 717.559 116.826C716.491 116.019 714.579 115.358 713.309 115.358C712.039 115.358 711 115.01 711 114.585C711 114.16 708.862 113.247 706.25 112.557C681.717 106.069 674.219 105.131 646.5 105.089C618.717 105.047 613.132 105.725 590 111.948C586.425 112.909 583.073 114.07 582.55 114.527C581.348 115.579 577 115.619 577 114.578C577 114.149 574.75 112.925 572 111.858C569.25 110.791 567 109.567 567 109.138C567 108.709 566.357 108.358 565.571 108.358C564.786 108.358 563.541 107.796 562.805 107.108C561.632 106.012 544.785 97.1421 529.269 89.4511L524.038 86.8581L524.019 66.0091C523.999 44.4071 523.864 43.5251 519.248 34.9291C515.969 28.8221 508.148 21.3111 501.132 17.5301C493.967 13.6691 487.001 10.3581 486.043 10.3581C485.454 10.3581 484.191 9.93406 483.236 9.41706C479.672 7.48406 458.89 2.35806 454.62 2.35806C453.107 2.35806 451.111 1.96406 450.184 1.48106C447.809 0.245062 413.672 -0.501938 400.5 0.394063ZM442.5 35.4611C448 36.0781 453.4 36.9471 454.5 37.3921C455.6 37.8381 458.432 38.4711 460.794 38.7991C463.155 39.1271 465.855 39.7921 466.794 40.2771C467.732 40.7621 471.087 41.9721 474.25 42.9651C477.413 43.9591 480 45.1291 480 45.5651C480 46.0011 480.468 46.3581 481.04 46.3581C482.619 46.3581 488 50.5841 488 51.8241C488 53.7821 484.021 56.3251 475 60.1331C472.752 61.0821 466.939 62.9421 458.5 65.4141C443.166 69.9051 395.834 69.9051 380.5 65.4141C372.061 62.9421 366.248 61.0821 364 60.1331C354.979 56.3251 351 53.7821 351 51.8241C351 50.5841 356.381 46.3581 357.96 46.3581C358.532 46.3581 359 46.0011 359 45.5651C359 45.1291 361.587 43.9591 364.75 42.9651C367.913 41.9721 371.268 40.7621 372.206 40.2771C373.145 39.7921 375.845 39.1271 378.206 38.7991C380.568 38.4711 383.4 37.8261 384.5 37.3661C390.857 34.7091 425.619 33.5671 442.5 35.4611ZM355.5 93.9901C358.25 94.8931 361.4 96.0231 362.5 96.5011C365.637 97.8661 378.705 100.462 392 102.363C400.415 103.566 438.585 103.566 447 102.363C460.199 100.476 472.707 97.9631 476.5 96.4361C479.735 95.1341 488.436 92.3481 489.25 92.3531C489.663 92.3561 490 98.7181 490 106.492V120.625L487.25 123.046C483.928 125.97 473.459 131.358 471.097 131.358C470.164 131.358 468.973 131.761 468.45 132.253C467.198 133.431 458.773 135.447 452.5 136.068C449.75 136.341 446.883 137.067 446.13 137.683C444.221 139.242 394.779 139.242 392.87 137.683C392.117 137.067 389.25 136.341 386.5 136.068C380.227 135.447 371.802 133.431 370.55 132.253C370.028 131.761 368.836 131.358 367.903 131.358C365.467 131.358 354.549 125.771 351.546 122.988C349.049 120.674 349 120.355 349 106.493C349 98.7191 349.337 92.3561 349.75 92.3531C350.163 92.3501 352.75 93.0871 355.5 93.9901ZM315.8 128.941C316.916 136.081 328.487 150.933 335.814 154.631C337.291 155.377 341.063 157.42 344.196 159.172C347.329 160.924 350.816 162.358 351.946 162.358C353.076 162.358 354 162.706 354 163.131C354 163.556 356.137 164.464 358.75 165.149C361.363 165.834 365.075 166.866 367 167.441C377.726 170.649 405.949 174.377 419.5 174.377C431.843 174.377 461.659 170.779 469 168.403C470.375 167.958 474.2 166.803 477.5 165.836C491.725 161.668 503.561 155.374 511.312 147.858C517.345 142.008 523 133.041 523 129.325C523 128.308 523.39 127.235 523.868 126.94C525.075 126.193 545.752 136.542 546.465 138.249C546.784 139.014 546.36 140.686 545.523 141.964C544.685 143.242 544 145.177 544 146.264C544 147.351 543.55 148.518 543 148.858C541.616 149.713 541.665 228.528 543.053 233.858C544.785 240.51 548.625 246.911 554.354 252.694C557.309 255.677 567.203 262.358 568.666 262.358C569.4 262.358 570.002 262.695 570.004 263.108C570.006 263.521 572.143 264.693 574.754 265.714C577.364 266.735 580.918 268.197 582.651 268.964C584.384 269.731 586.72 270.358 587.842 270.358C588.964 270.358 590.129 270.758 590.432 271.248C590.734 271.737 592.448 272.383 594.241 272.685C596.033 272.986 600.875 273.954 605 274.836C628.293 279.817 663.279 279.809 688.5 274.817C692.9 273.946 697.962 272.987 699.75 272.686C701.538 272.385 703 271.738 703 271.249C703 270.759 703.883 270.358 704.963 270.358C708.297 270.358 728.047 261.877 728.833 260.108C729.017 259.695 729.776 259.358 730.52 259.358C732.169 259.358 746 246.072 746 244.488C746 241.917 746.869 242.298 779.23 259.07C780.732 259.848 782.182 260.843 782.453 261.282C782.724 261.72 779.92 263.659 776.223 265.59C772.525 267.521 765.225 271.348 760 274.094C754.775 276.84 743.975 282.41 736 286.472C728.025 290.534 721.275 294.083 721 294.358C720.725 294.633 717.8 296.191 714.5 297.82C711.2 299.45 708.275 301.025 708 301.32C707.725 301.616 700.75 305.233 692.5 309.358C684.25 313.483 677.275 317.083 677 317.358C676.725 317.633 672 320.145 666.5 322.94C661 325.735 651.669 330.565 645.764 333.673C639.859 336.781 634.234 339.722 633.264 340.208C632.294 340.695 629.7 342.052 627.5 343.223C625.3 344.395 620.125 347.042 616 349.105C611.875 351.168 608.275 353.082 608 353.357C607.725 353.633 602.55 356.333 596.5 359.358C590.45 362.383 585.275 365.083 585 365.358C584.725 365.633 580 368.108 574.5 370.858C569 373.608 564.35 376.195 564.167 376.608C563.983 377.021 563.008 377.358 562 377.358C560.992 377.358 560.017 377.695 559.833 378.108C559.65 378.521 555 381.108 549.5 383.858C544 386.608 539.275 389.097 539 389.39C538.725 389.682 535.575 391.367 532 393.134C525.812 396.193 523.756 397.259 514.5 402.213C512.3 403.39 507.125 406.042 503 408.105C498.875 410.168 495.275 412.094 495 412.385C494.725 412.676 492.475 413.788 490 414.858C487.525 415.928 485.275 417.04 485 417.33C484.509 417.849 480.488 419.956 458.5 431.222C452.45 434.322 447.275 437.083 447 437.358C446.725 437.633 442 440.108 436.5 442.858C431 445.608 426.35 448.195 426.167 448.608C425.983 449.02 425.19 449.358 424.403 449.358C423.616 449.358 422.09 449.909 421.011 450.583C419.464 451.55 418.792 451.55 417.825 450.583C417.151 449.909 415.79 449.358 414.8 449.358C413.81 449.358 413 448.917 413 448.377C413 447.838 411.875 447.114 410.5 446.769C409.125 446.424 408 445.74 408 445.25C408 444.759 407.361 444.358 406.581 444.358C405.27 444.358 399.149 441.505 398.001 440.358C397.725 440.083 390.75 436.483 382.5 432.358C374.25 428.233 367.275 424.631 367 424.353C366.725 424.075 363.8 422.5 360.5 420.853C357.2 419.206 354.275 417.633 353.999 417.358C352.886 416.247 346.75 413.358 345.502 413.358C344.768 413.358 344.017 413.02 343.833 412.608C343.65 412.195 340.35 410.299 336.5 408.393C332.65 406.487 329.275 404.687 329 404.393C328.725 404.099 323.1 401.158 316.5 397.858C309.9 394.558 304.35 391.52 304.167 391.108C303.983 390.695 302.971 390.358 301.917 390.358C300.863 390.358 300 389.917 300 389.377C300 388.838 298.875 388.114 297.5 387.769C296.125 387.424 295 386.74 295 386.25C295 385.759 294.361 385.358 293.581 385.358C292.27 385.358 286.151 382.506 285 381.358C283.884 380.246 277.75 377.358 276.502 377.358C275.768 377.358 275.017 377.02 274.833 376.608C274.65 376.195 270 373.608 264.5 370.858C259 368.108 254.275 365.631 254 365.353C253.725 365.075 250.8 363.5 247.5 361.853C244.2 360.206 241.275 358.633 240.999 358.358C239.886 357.247 233.75 354.358 232.502 354.358C231.768 354.358 231.017 354.021 230.833 353.608C230.65 353.195 227.35 351.299 223.5 349.393C219.65 347.487 216.275 345.686 216 345.391C215.725 345.096 210.1 342.173 203.5 338.896C196.9 335.619 191.35 332.582 191.167 332.148C190.983 331.713 189.997 331.358 188.976 331.358C187.954 331.358 186.867 330.951 186.559 330.454C186.252 329.956 182.963 328.046 179.25 326.209C175.538 324.372 172.275 322.641 171.999 322.363C170.9 321.254 164.756 318.358 163.502 318.358C162.768 318.358 162.017 318.021 161.833 317.608C161.65 317.195 157 314.608 151.5 311.858C146 309.108 141.275 306.633 141 306.358C140.725 306.083 137.8 304.525 134.5 302.896C131.2 301.266 128.275 299.679 128 299.368C127.725 299.057 125.475 297.928 123 296.858C120.525 295.788 118.275 294.676 118 294.386C117.725 294.095 114.35 292.299 110.5 290.393C106.65 288.487 103.275 286.687 102.999 286.393C101.969 285.293 95.788 282.358 94.502 282.358C93.768 282.358 93.017 282.021 92.833 281.608C92.65 281.195 88.225 278.676 83 276.01C63.188 265.899 59.49 263.903 59.167 263.142C58.983 262.711 58.169 262.358 57.358 262.358C55.105 262.358 56.561 260.789 60.922 258.516C68.734 254.444 69.53 254.03 71.5 253.021C72.6 252.458 77.297 250.053 81.937 247.677C86.577 245.302 90.852 243.364 91.437 243.37C92.022 243.377 93.479 244.894 94.675 246.742C95.871 248.59 99.021 251.847 101.675 253.98C104.329 256.113 106.65 258.195 106.833 258.608C107.017 259.021 107.767 259.358 108.5 259.358C109.233 259.358 109.983 259.695 110.167 260.108C110.953 261.877 130.703 270.358 134.037 270.358C135.117 270.358 136 270.808 136 271.358C136 271.908 137.5 272.358 139.333 272.358C141.167 272.358 143.002 272.695 143.412 273.108C145.596 275.307 174.647 278.6 192 278.616C209.327 278.631 239.443 275.287 241.593 273.108C242 272.695 243.582 272.358 245.108 272.358C246.634 272.358 248.16 271.908 248.5 271.358C248.84 270.808 250.036 270.358 251.158 270.358C252.28 270.358 254.616 269.744 256.349 268.994C258.082 268.244 261.525 266.806 264 265.799C269.316 263.636 280.456 256.648 284 253.253C290.085 247.424 293.879 241.198 295.89 233.742C297.342 228.36 297.443 149.75 296 148.858C295.45 148.518 295 147.351 295 146.264C295 145.177 294.315 143.242 293.477 141.964C292.64 140.686 292.215 139.014 292.533 138.249C293.169 136.719 312.896 126.435 314.5 126.798C315.05 126.922 315.635 127.886 315.8 128.941ZM220.5 141.118C228.277 142.358 236.477 144.207 241.507 145.856C246.842 147.604 259.728 154.108 260.576 155.481C260.946 156.08 260.181 157.538 258.875 158.719C255.868 161.44 243.677 167.358 241.08 167.358C240.001 167.358 238.869 167.76 238.565 168.252C238.261 168.744 236.322 169.366 234.256 169.634C232.19 169.902 227.575 170.649 224 171.295C207.757 174.226 203.745 174.539 189 174.019C168.8 173.307 154.828 171.451 146.5 168.374C145.4 167.968 142.7 167.074 140.5 166.389C135.063 164.695 128 161.188 128 160.181C128 159.728 127.38 159.358 126.622 159.358C124.783 159.358 122.939 157.038 123.807 155.815C124.928 154.237 132.84 149.358 134.279 149.358C135.005 149.358 136.085 148.873 136.678 148.28C137.27 147.688 139.273 146.829 141.128 146.373C142.982 145.917 148.059 144.602 152.41 143.451C156.76 142.3 161.935 141.313 163.91 141.258C165.884 141.203 168.625 140.786 170 140.331C173.24 139.258 212.691 139.872 220.5 141.118ZM676 141.254C685.366 142.804 693.749 144.774 694.599 145.624C695.003 146.028 696.297 146.358 697.476 146.358C698.654 146.358 700.491 147.019 701.559 147.826C702.626 148.634 704.035 149.309 704.688 149.326C706.474 149.374 714.837 154.672 715.435 156.134C716.126 157.823 707.054 163.523 700 165.831C696.975 166.821 693.6 167.96 692.5 168.361C682.879 171.871 666.72 173.772 646.5 173.772C629.464 173.772 614.955 172.458 609.685 170.437C608.137 169.844 605.576 169.358 603.994 169.358C602.412 169.358 600.84 168.908 600.5 168.358C600.16 167.808 598.999 167.358 597.92 167.358C595.323 167.358 583.132 161.44 580.125 158.719C578.819 157.538 578.051 156.084 578.419 155.49C579.315 154.039 593.49 147.042 598.5 145.576C606.824 143.141 615.291 141.356 618.831 141.288C620.849 141.249 623.4 140.815 624.5 140.322C627.136 139.142 667.676 139.876 676 141.254ZM129.5 199.355C131.7 200.059 134.4 200.997 135.5 201.438C138.621 202.692 146.403 204.286 160 206.458C170.664 208.162 175.952 208.394 196 208.037C224.305 207.533 242.563 204.723 256.651 198.704C258.384 197.964 260.297 197.358 260.901 197.358C261.649 197.358 262 201.977 262 211.818V226.277L259.26 228.818C257.753 230.215 255.953 231.358 255.26 231.358C254.567 231.358 254 231.698 254 232.113C254 232.869 248.708 234.962 244 236.068C242.625 236.392 241.275 236.966 241 237.344C240.725 237.723 238.025 238.586 235 239.263C206.52 245.631 178.695 245.674 150.5 239.391C147.75 238.779 144.719 237.845 143.764 237.318C142.809 236.79 141.361 236.358 140.547 236.358C138.729 236.358 131.625 233.14 131.167 232.108C130.983 231.696 130.266 231.358 129.572 231.358C128.879 231.358 127.116 230.331 125.656 229.076C123.004 226.797 123 226.775 123 211.969C123 200.527 123.285 197.25 124.25 197.61C124.938 197.866 127.3 198.651 129.5 199.355ZM582.364 198.864C583.94 199.686 586.212 200.358 587.414 200.358C588.616 200.358 590.028 200.773 590.55 201.281C591.072 201.789 593.975 202.708 597 203.323C615.832 207.152 620.56 207.637 643 208.037C663.048 208.394 668.336 208.162 679 206.458C692.597 204.286 700.379 202.692 703.5 201.438C704.6 200.997 707.3 200.059 709.5 199.355C711.7 198.651 714.063 197.866 714.75 197.61C715.715 197.25 716 200.527 716 211.969C716 226.775 715.996 226.797 713.344 229.076C711.884 230.331 710.121 231.358 709.428 231.358C708.734 231.358 708.017 231.695 707.833 232.108C707.375 233.14 700.271 236.358 698.453 236.358C697.639 236.358 696.191 236.79 695.236 237.318C694.281 237.845 691.25 238.779 688.5 239.391C660.54 245.621 631.877 245.618 604.5 239.381C599.376 238.213 598.26 237.83 591.716 234.997C589.635 234.095 587.272 233.358 586.466 233.358C585.66 233.358 585 232.908 585 232.358C585 231.808 584.433 231.358 583.74 231.358C583.047 231.358 581.247 230.215 579.74 228.818L577 226.277V211.818C577 196.183 577.04 196.087 582.364 198.864ZM407 209.461C401.225 209.946 392.9 210.836 388.5 211.439C384.1 212.041 378.587 212.765 376.25 213.047C373.913 213.329 372 213.964 372 214.459C372 214.953 370.762 215.356 369.25 215.353C363.918 215.343 339.186 225.041 338.167 227.541C337.983 227.99 337.308 228.365 336.667 228.374C336.025 228.383 334.079 229.62 332.342 231.124C330.606 232.628 328.356 234.564 327.342 235.428C323.28 238.888 318.952 245.15 316.979 250.42C314.972 255.782 314.908 257.484 315.199 297.92L315.5 339.858L318.258 345.471C322.719 354.55 331.765 362.784 343.5 368.446C346.25 369.772 348.65 371.195 348.833 371.608C349.017 372.021 349.902 372.358 350.8 372.358C352.282 372.358 358.392 374.297 363.5 376.388C365.583 377.241 366.883 377.55 376 379.354C379.025 379.953 383.975 380.986 387 381.65C390.543 382.428 402.108 382.858 419.5 382.858C436.892 382.858 448.457 382.428 452 381.65C455.025 380.986 459.975 379.953 463 379.354C472.117 377.55 473.417 377.241 475.5 376.388C480.698 374.26 486.731 372.358 488.283 372.358C489.228 372.358 490 371.957 490 371.466C490 370.976 491.162 370.283 492.583 369.927C494.004 369.57 496.92 368.171 499.063 366.818C501.207 365.465 503.191 364.358 503.473 364.358C503.754 364.358 505.186 363.346 506.653 362.108C513.122 356.653 518.186 350.674 520.742 345.471L523.5 339.858L523.801 297.92C524.092 257.442 524.03 255.787 522.015 250.42C519.966 244.962 516.466 239.721 512.5 236.17C506.392 230.702 503.375 228.388 502.333 228.374C501.692 228.365 501.017 227.99 500.833 227.541C500.543 226.829 490.295 221.709 484.5 219.38C480.095 217.609 471.634 215.358 469.385 215.358C468.073 215.358 467 214.908 467 214.358C467 213.808 465.454 213.358 463.565 213.358C461.676 213.358 458.937 212.904 457.479 212.35C456.021 211.796 448.229 210.89 440.164 210.337C432.099 209.784 423.7 209.163 421.5 208.956C419.3 208.749 412.775 208.977 407 209.461ZM449.642 246.172C456.822 247.219 463.786 248.869 467.5 250.405C468.6 250.86 470.625 251.54 472 251.916C475.943 252.994 485 257.595 485 258.52C485 258.981 485.675 259.358 486.5 259.358C488.092 259.358 488.455 261.132 487.235 262.957C486.188 264.521 478.373 268.651 472.5 270.744C469.75 271.724 466.825 272.795 466 273.125C458.378 276.17 436.694 278.831 419.5 278.831C402.306 278.831 380.622 276.17 373 273.125C372.175 272.795 369.25 271.724 366.5 270.744C360.627 268.651 352.812 264.521 351.765 262.957C350.545 261.132 350.908 259.358 352.5 259.358C353.325 259.358 354 258.981 354 258.52C354 257.595 363.057 252.994 367 251.916C368.375 251.54 370.4 250.839 371.5 250.359C375.053 248.808 386.516 246.36 390.564 246.288C392.729 246.249 395.4 245.818 396.5 245.331C399.111 244.173 440.415 244.827 449.642 246.172ZM39.096 292.03C40.968 292.949 42.725 293.962 43 294.28C43.275 294.598 47.55 296.883 52.5 299.358C57.45 301.833 61.725 304.095 62 304.386C62.275 304.676 64.525 305.788 67 306.858C69.475 307.928 71.725 309.04 72 309.33C72.275 309.621 75.65 311.433 79.5 313.358C83.35 315.283 86.725 317.083 87 317.358C87.275 317.633 93.8 321.008 101.5 324.858C109.2 328.708 115.725 332.111 116 332.419C116.275 332.728 119.65 334.525 123.5 336.414C127.35 338.302 130.725 340.087 131 340.38C131.275 340.673 133.525 341.788 136 342.858C138.475 343.928 140.725 345.043 141 345.336C141.275 345.629 144.65 347.414 148.5 349.302C152.35 351.191 155.725 352.988 156 353.297C156.275 353.605 160.55 355.867 165.5 358.322C170.45 360.778 174.725 363.04 175 363.35C175.275 363.66 177.525 364.788 180 365.858C182.475 366.928 184.725 368.04 185 368.33C185.275 368.621 188.65 370.433 192.5 372.358C196.35 374.283 199.725 376.095 200 376.386C200.275 376.676 202.525 377.788 205 378.858C207.475 379.928 209.725 381.04 210 381.33C210.275 381.621 214.55 383.866 219.5 386.32C224.45 388.774 228.725 391.052 229 391.381C229.275 391.711 232.65 393.525 236.5 395.414C240.35 397.302 243.725 399.087 244 399.38C244.275 399.673 246.525 400.788 249 401.858C251.475 402.928 253.725 404.043 254 404.336C254.275 404.629 257.65 406.414 261.5 408.302C265.35 410.191 268.725 412.001 269 412.324C269.275 412.648 271.525 413.788 274 414.858C276.475 415.928 278.725 417.04 279 417.33C279.275 417.621 281.3 418.754 283.5 419.848C285.7 420.943 287.725 422.081 288 422.376C288.275 422.671 290.525 423.788 293 424.858C295.475 425.928 297.725 427.04 298 427.33C298.275 427.621 301.65 429.433 305.5 431.358C309.35 433.283 312.725 435.095 313 435.386C313.275 435.676 315.525 436.788 318 437.858C320.475 438.928 322.725 440.04 323 440.33C323.275 440.621 328 443.154 333.5 445.96C358.111 458.517 366.534 462.893 367 463.363C367.275 463.641 370.65 465.414 374.5 467.302C378.35 469.191 381.725 471.001 382 471.324C382.275 471.648 384.525 472.788 387 473.858C389.475 474.928 391.725 476.04 392 476.33C392.275 476.621 394.3 477.754 396.5 478.848C398.7 479.943 400.831 481.293 401.235 481.848C402.332 483.357 402.18 721.358 401.081 721.358C400.148 721.358 393.918 718.274 393.001 717.358C392.725 717.083 385.866 713.483 377.758 709.358C357.701 699.154 349.72 694.98 345.477 692.477C343.502 691.311 341.274 690.358 340.526 690.358C339.778 690.358 339.017 690.021 338.833 689.608C338.65 689.195 334 686.608 328.5 683.858C323 681.108 318.275 678.633 318 678.358C317.725 678.083 312.55 675.383 306.5 672.358C300.45 669.333 295.275 666.633 295 666.358C294.725 666.083 291.35 664.283 287.5 662.358C283.65 660.433 280.275 658.621 280 658.33C279.725 658.04 277.475 656.928 275 655.858C272.525 654.788 270.275 653.676 270 653.386C269.521 652.88 263.319 649.652 238 636.728C231.675 633.5 226.275 630.633 226 630.358C225.725 630.083 221 627.608 215.5 624.858C210 622.108 205.35 619.521 205.167 619.108C204.983 618.695 204.061 618.358 203.117 618.358C202.172 618.358 200.972 617.94 200.45 617.429C199.613 616.611 193.665 613.429 173 602.749C169.975 601.185 167.275 599.658 167 599.354C166.725 599.051 164.475 597.928 162 596.858C159.525 595.788 157.275 594.676 157 594.386C156.521 593.88 150.319 590.652 125 577.728C118.675 574.5 113.275 571.628 113 571.348C112.725 571.067 106.875 567.995 100 564.522C93.125 561.048 80.75 554.643 72.5 550.289C64.25 545.934 56.825 542.063 56 541.687C55.175 541.311 54.275 540.734 54 540.403C53.725 540.073 51.475 538.928 49 537.858C46.525 536.788 44.275 535.669 44 535.37C43.725 535.072 41.593 533.935 39.261 532.843L35.023 530.858L35.011 410.608C35.005 344.47 35.156 290.358 35.346 290.358C35.537 290.358 37.224 291.11 39.096 292.03ZM804 410.858C804 514.152 803.798 531.358 802.583 531.358C801.804 531.358 801.017 531.695 800.833 532.108C800.65 532.521 796.675 534.811 792 537.198C787.325 539.585 776.75 545.05 768.5 549.342C760.25 553.634 749.675 559.106 745 561.502C740.325 563.898 736.35 566.195 736.167 566.608C735.983 567.021 735.232 567.358 734.498 567.358C733.228 567.358 727.064 570.274 726.001 571.378C725.549 571.846 718.895 575.317 696 587.023C691.875 589.132 688.275 591.09 688 591.373C687.725 591.657 684.125 593.56 680 595.603C675.875 597.646 665.75 602.866 657.5 607.202C649.25 611.538 638.225 617.284 633 619.972C627.775 622.659 623.35 625.195 623.167 625.608C622.983 626.021 622.232 626.358 621.498 626.358C620.25 626.358 614.114 629.247 613.001 630.358C612.54 630.818 601.898 636.376 583 646.028C578.875 648.134 575.275 650.083 575 650.358C574.725 650.633 567.75 654.233 559.5 658.358C551.25 662.483 544.275 666.1 544 666.396C543.725 666.692 539.45 668.942 534.5 671.396C529.55 673.85 525.275 676.105 525 676.408C524.725 676.71 519.1 679.634 512.5 682.906C505.9 686.178 500.275 689.08 500 689.356C499.725 689.632 495 692.142 489.5 694.933C474.086 702.756 462.552 708.806 462 709.358C461.177 710.181 438.562 721.383 437.75 721.37C436.779 721.354 436.795 483.191 437.765 481.822C438.169 481.253 442.55 478.778 447.5 476.322C452.45 473.867 456.725 471.633 457 471.358C457.275 471.083 460.65 469.283 464.5 467.358C468.35 465.433 471.725 463.621 472 463.33C472.275 463.04 474.525 461.928 477 460.858C479.475 459.788 481.725 458.676 482 458.386C482.504 457.853 484.514 456.793 504.5 446.515C510.55 443.404 515.65 440.521 515.833 440.108C516.017 439.695 516.768 439.358 517.502 439.358C518.75 439.358 524.886 436.469 525.999 435.358C526.275 435.083 531.9 432.158 538.5 428.858C545.1 425.558 550.725 422.616 551 422.32C551.275 422.024 555.55 419.774 560.5 417.32C565.45 414.866 569.725 412.633 570 412.358C570.275 412.083 573.65 410.283 577.5 408.358C581.35 406.433 584.725 404.621 585 404.33C585.275 404.04 587.525 402.928 590 401.858C592.475 400.788 594.725 399.676 595 399.386C595.275 399.095 599.1 397.026 603.5 394.786C624.932 383.878 638.547 376.811 639 376.358C639.275 376.083 644.9 373.158 651.5 369.858C658.1 366.558 663.725 363.633 664 363.358C664.487 362.871 677.184 356.27 697.5 345.942C703 343.146 707.725 340.633 708 340.358C708.275 340.083 712.1 338.026 716.5 335.786C737.922 324.883 751.547 317.811 752.001 317.358C753.149 316.211 759.27 313.358 760.581 313.358C761.361 313.358 762.003 313.021 762.006 312.608C762.009 312.195 765.271 310.283 769.256 308.358C773.24 306.433 776.725 304.633 777 304.358C777.436 303.922 803.094 290.542 803.75 290.409C803.888 290.381 804 344.583 804 410.858ZM356.5 304.219C359.163 305.885 371.071 308.734 385.5 311.157C404.404 314.33 448.852 313.248 464.5 309.233C466.7 308.669 471.2 307.524 474.5 306.689C477.8 305.853 481.19 304.82 482.033 304.391C482.876 303.963 485.013 303.294 486.783 302.906L490 302.199V330.625L487.25 333.04C482.655 337.076 469.235 342.752 460 344.566C448.37 346.85 444.636 347.391 432.675 348.526C422.625 349.479 417.001 349.481 406.675 348.533C394.417 347.407 390.893 346.902 379 344.566C369.714 342.742 355.685 336.824 351.539 332.982C349.05 330.675 349 330.35 349 316.414V302.199L352.25 302.896C354.038 303.28 355.95 303.875 356.5 304.219Z" fill="white"/>
</svg>
